<?xml version="1.0" encoding="UTF-8"?>
<svg width="26px" height="26px" viewBox="0 0 26 26" version="1.1" xmlns="http://www.w3.org/2000/svg" xmlns:xlink="http://www.w3.org/1999/xlink">
    <!-- Generator: Sketch 47.1 (45422) - http://www.bohemiancoding.com/sketch -->
    <title>instagram</title>
    <desc>Created with Sketch.</desc>
    <defs></defs>
    <g id="UI-Icons" stroke="none" stroke-width="1" fill="none" fill-rule="evenodd">
        <g transform="translate(-342.000000, -1799.000000)" id="Social/White" fill="#FFFFFF">
            <g transform="translate(99.000000, 1763.000000)">
                <g id="Instagram" transform="translate(226.000000, 19.000000)">
                    <g id="Social/White/Instagram" transform="translate(17.000000, 17.000000)">
                        <g id="icon">
                            <path d="M12.9958988,0.00820753968 C9.4664504,0.00820753968 9.02383135,0.0231678571 7.63773214,0.0864138889 C6.25441865,0.149505159 5.30975198,0.369215476 4.48306548,0.69050119 C3.62852183,1.02256865 2.90372024,1.46694167 2.18124008,2.18942183 C1.45870833,2.91195357 1.0143869,3.63670357 0.682267857,4.49124722 C0.360982143,5.31793373 0.141323413,6.2626004 0.0781805556,7.64591389 C0.0149345238,9.03206468 2.57936508e-05,9.47458056 2.57936508e-05,13.0040806 C2.57936508e-05,16.5335806 0.0149345238,16.976148 0.0781805556,18.3622988 C0.141323413,19.7455607 0.360982143,20.690279 0.682267857,21.5169139 C1.0143869,22.3714575 1.45870833,23.0962591 2.18124008,23.8187393 C2.90372024,24.541271 3.62852183,24.9855925 4.48306548,25.3177631 C5.30975198,25.6389972 6.25441865,25.8587075 7.63773214,25.9218504 C9.02383135,25.9850448 9.4664504,26.0000052 12.9958988,26.0000052 C16.5253988,26.0000052 16.9679147,25.9850448 18.3540655,25.9218504 C19.737379,25.8587075 20.6820456,25.6389972 21.5087321,25.3177631 C22.3633274,24.9855925 23.0880774,24.541271 23.8105575,23.8187393 C24.5330893,23.0962591 24.9774107,22.3715091 25.3095298,21.5169139 C25.6308155,20.690279 25.8505258,19.7455607 25.9136171,18.3622988 C25.9768631,16.976148 25.9918234,16.5335806 25.9918234,13.0040806 C25.9918234,9.47463214 25.9768631,9.03206468 25.9136171,7.64591389 C25.8505258,6.2626004 25.6308155,5.31793373 25.3095298,4.49124722 C24.9774107,3.63670357 24.5330893,2.91195357 23.8105575,2.18942183 C23.0880774,1.46694167 22.3633274,1.02256865 21.5087321,0.69050119 C20.6820456,0.369215476 19.737379,0.149505159 18.3540655,0.0864138889 C16.9679147,0.0231678571 16.5253988,0.00820753968 12.9958988,0.00820753968 M12.9958988,2.34980675 C16.4659702,2.34980675 16.8769663,2.3630131 18.2473313,2.4255369 C19.5144187,2.48336627 20.2025417,2.69508056 20.6604821,2.87305675 C21.2670972,3.10881071 21.7000694,3.39042579 22.1548115,3.84516786 C22.6095536,4.29996151 22.8911687,4.73288214 23.1269742,5.33949722 C23.3048988,5.7974377 23.5166131,6.48556071 23.5744425,7.75264802 C23.6369147,9.1230131 23.6501726,9.53406071 23.6501726,13.0040806 C23.6501726,16.474152 23.6369147,16.8851996 23.5744425,18.2555131 C23.5166131,19.522652 23.3048988,20.210775 23.1269742,20.6687155 C22.8911687,21.275279 22.6095536,21.7082512 22.1548115,22.1629933 C21.7000694,22.6177869 21.2670972,22.899402 20.6604821,23.135156 C20.2025417,23.3130806 19.5144187,23.5248464 18.2473313,23.5826242 C16.8771726,23.645148 16.4662282,23.658406 12.9958988,23.658406 C9.52556944,23.658406 9.114625,23.645148 7.74446627,23.5826242 C6.47737897,23.5248464 5.78920437,23.3130806 5.33126389,23.135156 C4.7247004,22.899402 4.29172817,22.6177869 3.83698611,22.1629933 C3.38224405,21.7082512 3.10057738,21.275279 2.86482341,20.6687155 C2.68689881,20.210775 2.47518452,19.522652 2.41735516,18.2555647 C2.35483135,16.8851996 2.341625,16.474152 2.341625,13.0040806 C2.341625,9.53406071 2.35483135,9.1230131 2.41735516,7.75264802 C2.47518452,6.48556071 2.68689881,5.7974377 2.86482341,5.33949722 C3.10057738,4.73288214 3.38224405,4.29996151 3.83698611,3.84521944 C4.29172817,3.39042579 4.7247004,3.10881071 5.33126389,2.87305675 C5.78920437,2.69508056 6.47737897,2.48336627 7.74441468,2.4255369 C9.11483135,2.3630131 9.52582738,2.34980675 12.9958988,2.34980675" id="Fill-1"></path>
                            <path d="M13.0000259,17.2388827 C10.5991712,17.2388827 8.65284151,15.3116347 8.65284151,12.9343178 C8.65284151,10.5570009 10.5991712,8.62980414 13.0000259,8.62980414 C15.4008806,8.62980414 17.3472103,10.5570009 17.3472103,12.9343178 C17.3472103,15.3116347 15.4008806,17.2388827 13.0000259,17.2388827 M13.0000259,6.3030303 C9.30139375,6.3030303 6.3030303,9.27194677 6.3030303,12.9343178 C6.3030303,16.5967401 9.30139375,19.5656566 13.0000259,19.5656566 C16.698658,19.5656566 19.6969697,16.5967401 19.6969697,12.9343178 C19.6969697,9.27194677 16.698658,6.3030303 13.0000259,6.3030303" id="Fill-4"></path>
                            <path d="M21.5353535,6.17171717 C21.5353535,7.04200657 20.829897,7.74747475 19.959622,7.74747475 C19.089347,7.74747475 18.3838384,7.04200657 18.3838384,6.17171717 C18.3838384,5.30142777 19.089347,4.5959596 19.959622,4.5959596 C20.829897,4.5959596 21.5353535,5.30142777 21.5353535,6.17171717" id="Fill-6"></path>
                        </g>
                    </g>
                </g>
            </g>
        </g>
    </g>
</svg>