<svg width="392" height="48" viewBox="0 0 392 48" fill="none" xmlns="http://www.w3.org/2000/svg">
<path d="M308.197 21.8117H273.734V0.106995H265.582V47.5975H273.734V29.9637H308.197V47.5975H316.349V0.106995H308.197V21.8117ZM50.6188 47.5975H60.3604L70.5504 32.0017H92.7697L102.96 47.5975H112.701L81.6677 0.117185L50.6188 47.5975ZM75.89 23.8497L81.6677 15.0099L87.4454 23.8497H75.89ZM152.794 0.106995L132.837 20.1456L112.88 0.106995H101.37L128.73 27.5792L128.791 47.6077H136.943L136.882 27.6557L164.298 0.142659L152.794 0.106995ZM234.074 27.1614L222.565 0.106995H213.705L202.195 27.1614L190.685 0.106995H181.825L202.205 48L218.142 10.5212L234.085 47.9847L254.465 0.0917102H245.584L234.074 27.1614ZM381.626 6.55217C375.644 2.39465 367.767 0.106995 359.447 0.106995C351.122 0.106995 343.245 2.39465 337.269 6.55217C330.834 11.0256 327.287 17.1141 327.287 23.7019C327.287 30.2898 330.854 36.3834 337.269 40.8517C343.25 45.0092 351.127 47.2969 359.457 47.2969C367.788 47.2969 375.664 45.0092 381.646 40.8517C388.076 36.3834 391.622 30.2898 391.622 23.7019C391.622 17.1141 388.056 11.0256 381.626 6.55217ZM359.437 39.1602C346.419 39.1602 335.419 32.0883 335.419 23.7172C335.419 15.3461 346.419 8.27428 359.437 8.27428C372.455 8.27428 383.45 15.3461 383.45 23.7172C383.45 32.0883 372.45 39.1449 359.437 39.1449V39.1602ZM24.4203 19.2897C11.2344 17.8835 11.2344 15.2137 11.2344 13.9348C11.2344 10.4753 15.9524 8.152 22.9529 8.152C29.9534 8.152 35.2522 10.6384 35.2522 13.9348H43.4042C43.4042 9.76712 41.2032 6.07324 37.2036 3.52574C34.1874 1.60492 30.254 0.43817 25.7246 0.106995C24.8228 0.0407595 23.9006 0 22.9529 0C22.0052 0 21.0932 0.0407595 20.2016 0.106995C15.6823 0.443265 11.8101 1.63549 8.89579 3.58178C5.17135 6.12929 3.0824 9.7824 3.0824 13.9348C3.0824 18.2401 5.06435 21.5417 8.97731 23.7427C12.1566 25.5361 16.6555 26.6621 23.5592 27.3958C34.9262 28.6033 37.3157 31.4718 37.3157 33.6525C37.3157 35.7312 32.6945 39.4353 23.4879 39.4353C13.7259 39.4353 8.52895 36.0777 8.52895 33.6525H0.376953C0.376953 41.9879 9.66514 47.5873 23.4879 47.5873C36.2254 47.5873 45.4677 41.7281 45.4677 33.6525C45.4677 25.5769 38.3806 20.7723 24.4203 19.2897Z" fill="white"/>
</svg>
