<?xml version="1.0" encoding="UTF-8"?>
<svg width="26px" height="20px" viewBox="0 0 26 20" version="1.1" xmlns="http://www.w3.org/2000/svg" xmlns:xlink="http://www.w3.org/1999/xlink">
    <!-- Generator: Sketch 47.1 (45422) - http://www.bohemiancoding.com/sketch -->
    <title>youtube</title>
    <desc>Created with Sketch.</desc>
    <defs></defs>
    <g id="UI-Icons" stroke="none" stroke-width="1" fill="none" fill-rule="evenodd">
        <g transform="translate(-418.000000, -1802.000000)" id="Social/White" fill="#FFFFFF">
            <g transform="translate(99.000000, 1763.000000)">
                <g id="Youtube" transform="translate(302.000000, 19.000000)">
                    <g id="Social/White/Youtube" transform="translate(17.000000, 17.000000)">
                        <path d="M10.3409091,16.9506749 L10.3409091,9.04932527 L17.1363636,13.0001511 L10.3409091,16.9506749 Z M25.4566591,6.56318849 C25.1576591,5.41251236 24.2766136,4.50640398 23.1580227,4.19888269 C21.1304659,3.6400001 13,3.6400001 13,3.6400001 C13,3.6400001 4.86953409,3.6400001 2.84197727,4.19888269 C1.72338636,4.50640398 0.842340909,5.41251236 0.543340909,6.56318849 C0,8.64865688 0,13.0000001 0,13.0000001 C0,13.0000001 0,17.3511924 0.543340909,19.4368117 C0.842340909,20.5874878 1.72338636,21.4935962 2.84197727,21.8012685 C4.86953409,22.3600001 13,22.3600001 13,22.3600001 C13,22.3600001 21.1304659,22.3600001 23.1580227,21.8012685 C24.2766136,21.4935962 25.1576591,20.5874878 25.4566591,19.4368117 C26,17.3511924 26,13.0000001 26,13.0000001 C26,13.0000001 26,8.64865688 25.4566591,6.56318849 L25.4566591,6.56318849 Z" id="Fill-1"></path>
                    </g>
                </g>
            </g>
        </g>
    </g>
</svg>